<svg xmlns="http://www.w3.org/2000/svg" width="1em" height="1em" viewBox="0 0 512 512">
  <defs>
    <linearGradient id="pride-gradient" x1="0%" y1="0%" x2="0%" y2="100%">
      <stop offset="0%" style="stop-color: #FF0000; stop-opacity: 1" /> <!-- Red -->
      <stop offset="16.66%" style="stop-color: #FF7F00; stop-opacity: 1" /> <!-- Orange -->
      <stop offset="33.33%" style="stop-color: #FFFF00; stop-opacity: 1" /> <!-- Yellow -->
      <stop offset="50%" style="stop-color: #00FF00; stop-opacity: 1" /> <!-- Green -->
      <stop offset="66.66%" style="stop-color: #0000FF; stop-opacity: 1" /> <!-- Blue -->
      <stop offset="83.33%" style="stop-color: #8B00FF; stop-opacity: 1" /> <!-- Violet -->
    </linearGradient>
  </defs>
<path fill="url(#pride-gradient)" d="M71 22.406v102.53h202.25v18.69h-73.22v36.968h-18.686v-36.97H79.156l43.375 53.782h180.44v18.688H180.905v36.97H162.22v-36.97h-39.407v163.562h58.53v-44.75H157.47V316.22h74.155v-33.66H193.72v-18.687h97.218v18.688h-40.625v33.656h73.28v18.686h-32.437v44.75h26.313v18.688h-63.69l-2.686 74.03l-18.688-.687l2.656-73.343H93.032V398h-.22l-28.687 92.844h79.844l9.81-70.688l18.5 2.563l-9.468 68.124H453.25L424.562 398h-30.03V197.78l51.812-64.25V22.407h-64.406v52.438h-39.22V22.406h-65.124v52.438h-38.53V22.406h-65.126v52.438h-38.5V22.406zm129.03 312.5v44.75h72.44v-44.75z"/></svg>
