<svg xmlns="http://www.w3.org/2000/svg" width="32" height="32" viewBox="0 0 512 512">
  <defs>
    <linearGradient id="pride-gradient" x1="0%" y1="0%" x2="0%" y2="100%">
      <stop offset="0%" style="stop-color: #FF0000; stop-opacity: 1" /> <!-- Red -->
      <stop offset="16.66%" style="stop-color: #FF7F00; stop-opacity: 1" /> <!-- Orange -->
      <stop offset="33.33%" style="stop-color: #FFFF00; stop-opacity: 1" /> <!-- Yellow -->
      <stop offset="50%" style="stop-color: #00FF00; stop-opacity: 1" /> <!-- Green -->
      <stop offset="66.66%" style="stop-color: #0000FF; stop-opacity: 1" /> <!-- Blue -->
      <stop offset="83.33%" style="stop-color: #8B00FF; stop-opacity: 1" /> <!-- Violet -->
    </linearGradient>
  </defs>
<path fill="url(#pride-gradient)" d="M48.906 19.656v10.782c0 103.173 10.53 206.07 41.313 289.53c30.78 83.463 82.763 148.094 164.53 170.563l2.188.626l2.25-.5c89.686-19.12 142.322-84.028 171.187-168.344S465.78 133.657 465.78 30.438v-10.78l-10.655 1.53C323.26 39.954 191.452 40 59.595 21.188l-10.69-1.53zM67.75 41.03c63.242 8.536 126.495 12.792 189.75 12.782v184.532h174.78c-4.905 27.572-11.31 53.747-19.592 77.937c-27.348 79.884-73.757 137.33-155.157 155.564c-.008-.003-.02.003-.03 0v-233.5H86.53c-12.87-60.99-18.277-128.81-18.78-197.313z"/></svg>
